<?xml version="1.0" encoding="UTF-8"?>
<!DOCTYPE svg PUBLIC "-//W3C//DTD SVG 1.1//EN" "http://www.w3.org/Graphics/SVG/1.1/DTD/svg11.dtd">
<svg xmlns="http://www.w3.org/2000/svg" version="1.1" width="938px" height="196px" style="shape-rendering:geometricPrecision; text-rendering:geometricPrecision; image-rendering:optimizeQuality; fill-rule:evenodd; clip-rule:evenodd" xmlns:xlink="http://www.w3.org/1999/xlink">
<g><path style="opacity:0.963" fill="#000000" d="M 303.5,-0.5 C 312.833,-0.5 322.167,-0.5 331.5,-0.5C 331.333,18.5029 331.5,37.5029 332,56.5C 335.045,52.2435 338.212,48.0768 341.5,44C 356.5,43.3333 371.5,43.3333 386.5,44C 391.91,45.7425 395.744,49.2425 398,54.5C 398.5,101.499 398.667,148.499 398.5,195.5C 389.167,195.5 379.833,195.5 370.5,195.5C 370.5,149.5 370.5,103.5 370.5,57.5C 357.5,57.5 344.5,57.5 331.5,57.5C 331.5,103.5 331.5,149.5 331.5,195.5C 322.167,195.5 312.833,195.5 303.5,195.5C 303.5,130.167 303.5,64.8333 303.5,-0.5 Z"/></g>
<g><path style="opacity:0.955" fill="#000000" d="M 421.5,-0.5 C 430.833,-0.5 440.167,-0.5 449.5,-0.5C 449.666,7.50694 449.5,15.5069 449,23.5C 440.404,28.5488 431.571,33.2155 422.5,37.5C 421.501,24.8508 421.168,12.1842 421.5,-0.5 Z"/></g>
<g><path style="opacity:0.954" fill="#000000" d="M 515.5,195.5 C 504.167,195.5 492.833,195.5 481.5,195.5C 477.189,193.353 474.022,190.02 472,185.5C 471.333,130.5 471.333,75.5 472,20.5C 480.848,14.1672 490.015,8.50051 499.5,3.5C 499.333,21.1698 499.5,38.8365 500,56.5C 502.833,52.3333 505.667,48.1667 508.5,44C 520.5,43.3333 532.5,43.3333 544.5,44C 542.23,48.5978 539.563,52.9311 536.5,57C 524.171,57.4999 511.838,57.6665 499.5,57.5C 499.5,98.8333 499.5,140.167 499.5,181.5C 507.196,181.169 514.862,181.503 522.5,182.5C 519.707,186.615 517.374,190.949 515.5,195.5 Z"/></g>
<g><path style="opacity:0.954" fill="#000000" d="M 811.5,195.5 C 800.167,195.5 788.833,195.5 777.5,195.5C 772.766,193.261 769.599,189.594 768,184.5C 767.333,129.833 767.333,75.1667 768,20.5C 776.848,14.1672 786.015,8.50051 795.5,3.5C 795.333,21.1698 795.5,38.8365 796,56.5C 799.045,52.2435 802.212,48.0768 805.5,44C 817.181,43.1675 828.848,43.3341 840.5,44.5C 838.167,48.5 835.833,52.5 833.5,56.5C 820.851,57.4991 808.184,57.8324 795.5,57.5C 795.5,98.8333 795.5,140.167 795.5,181.5C 803.196,181.169 810.862,181.503 818.5,182.5C 815.887,186.728 813.554,191.061 811.5,195.5 Z"/></g>
<g><path style="opacity:0.957" fill="#000000" d="M 93.5,195.5 C 84.1667,195.5 74.8333,195.5 65.5,195.5C 65.6653,191.818 65.4986,188.152 65,184.5C 62.6284,187.91 60.7951,191.577 59.5,195.5C 42.5,195.5 25.5,195.5 8.5,195.5C 4.5,193.5 1.5,190.5 -0.5,186.5C -0.5,183.167 -0.5,179.833 -0.5,176.5C 9.71134,158.42 19.7113,140.087 29.5,121.5C 25.1667,120.833 20.8333,120.167 16.5,119.5C 21,111.167 25.5,102.833 30,94.5C 40.1058,93.1818 50.2725,93.1818 60.5,94.5C 56.5487,102.904 52.2153,111.071 47.5,119C 51.8711,119.172 56.2044,119.672 60.5,120.5C 49.8333,140.5 39.1667,160.5 28.5,180.5C 40.8153,181.499 53.1487,181.832 65.5,181.5C 65.5,140.167 65.5,98.8333 65.5,57.5C 48.4869,57.8328 31.4869,57.4995 14.5,56.5C 17.2914,52.4181 19.9581,48.2515 22.5,44C 42.8333,43.3333 63.1667,43.3333 83.5,44C 89.4871,46.462 92.6537,50.962 93,57.5C 93.5,103.499 93.6667,149.499 93.5,195.5 Z"/></g>
<g><path style="opacity:0.989" fill="#000000" d="M 142.5,195.5 C 133.5,195.5 124.5,195.5 115.5,195.5C 115.5,144.833 115.5,94.1667 115.5,43.5C 139.836,43.3334 164.169,43.5 188.5,44C 186.23,48.5978 183.563,52.9311 180.5,57C 167.838,57.4999 155.171,57.6666 142.5,57.5C 142.5,103.5 142.5,149.5 142.5,195.5 Z"/></g>
<g><path style="opacity:0.96" fill="#000000" d="M 277.5,195.5 C 258.5,195.5 239.5,195.5 220.5,195.5C 209.979,191.808 203.479,184.475 201,173.5C 200.333,137.167 200.333,100.833 201,64.5C 203.833,53.6667 210.667,46.8333 221.5,44C 240.833,43.3333 260.167,43.3333 279.5,44C 276.833,48.3333 274.167,52.6667 271.5,57C 257.171,57.4999 242.837,57.6666 228.5,57.5C 228.5,98.8333 228.5,140.167 228.5,181.5C 247.179,181.167 265.845,181.5 284.5,182.5C 281.707,186.615 279.374,190.949 277.5,195.5 Z"/></g>
<g><path style="opacity:0.967" fill="#000000" d="M 449.5,195.5 C 440.167,195.5 430.833,195.5 421.5,195.5C 421.5,144.833 421.5,94.1667 421.5,43.5C 430.833,43.5 440.167,43.5 449.5,43.5C 449.5,94.1667 449.5,144.833 449.5,195.5 Z"/></g>
<g><path style="opacity:0.959" fill="#000000" d="M 638.5,195.5 C 614.167,195.5 589.833,195.5 565.5,195.5C 561.386,192.879 558.553,189.212 557,184.5C 556.5,137.501 556.333,90.5012 556.5,43.5C 582.835,43.3334 609.169,43.5 635.5,44C 646.167,48.4999 650,56.3333 647,67.5C 637.833,84.6667 628.667,101.833 619.5,119C 623.871,119.172 628.204,119.672 632.5,120.5C 628.167,128.5 623.833,136.5 619.5,144.5C 609.183,145.666 598.849,145.832 588.5,145C 592.96,137.247 597.294,129.414 601.5,121.5C 597.167,120.833 592.833,120.167 588.5,119.5C 599.246,99.0071 610.246,78.6738 621.5,58.5C 609.185,57.501 596.851,57.1676 584.5,57.5C 584.5,98.8333 584.5,140.167 584.5,181.5C 604.844,181.167 625.178,181.5 645.5,182.5C 642.887,186.728 640.554,191.061 638.5,195.5 Z"/></g>
<g><path style="opacity:0.959" fill="#000000" d="M 740.5,195.5 C 721.833,195.5 703.167,195.5 684.5,195.5C 673.966,191.796 667.466,184.463 665,173.5C 664.025,135.787 664.358,98.1199 666,60.5C 669.755,51.7439 676.255,46.2439 685.5,44C 704.833,43.3333 724.167,43.3333 743.5,44C 740.833,48.3333 738.167,52.6667 735.5,57C 721.171,57.4999 706.837,57.6666 692.5,57.5C 692.5,98.8333 692.5,140.167 692.5,181.5C 711.179,181.167 729.845,181.5 748.5,182.5C 745.806,186.851 743.14,191.184 740.5,195.5 Z"/></g>
<g><path style="opacity:0.96" fill="#000000" d="M 937.5,174.5 C 937.5,177.833 937.5,181.167 937.5,184.5C 934.808,189.192 931.142,192.858 926.5,195.5C 899.167,195.5 871.833,195.5 844.5,195.5C 846.359,190.947 848.359,186.447 850.5,182C 870.5,181.667 890.5,181.333 910.5,181C 899.627,160.753 888.627,140.587 877.5,120.5C 881.833,119.833 886.167,119.167 890.5,118.5C 880.73,100.627 871.23,82.6266 862,64.5C 859.995,54.3405 863.828,47.5072 873.5,44C 893.842,43.1669 914.175,43.3336 934.5,44.5C 932.901,48.8648 930.901,53.0314 928.5,57C 915.167,57.3333 901.833,57.6667 888.5,58C 899.627,78.4205 910.627,98.9205 921.5,119.5C 917.204,120.328 912.871,120.828 908.5,121C 918.322,138.815 927.989,156.649 937.5,174.5 Z"/></g>
</svg>
